<svg width="40" height="41" viewBox="0 0 40 41" fill="none" xmlns="http://www.w3.org/2000/svg">
<path d="M16.0606 19.894C16.6464 19.3082 16.6464 18.3585 16.0606 17.7727C15.4748 17.1869 14.525 17.1869 13.9393 17.7727L16.0606 19.894ZM8.33325 25.5L7.27259 24.4393C6.68681 25.0251 6.68681 25.9749 7.27259 26.5607L8.33325 25.5ZM13.9393 33.2273C14.525 33.8131 15.4748 33.8131 16.0606 33.2273C16.6464 32.6415 16.6464 31.6918 16.0606 31.106L13.9393 33.2273ZM8.33325 24C7.50482 24 6.83325 24.6716 6.83325 25.5C6.83325 26.3284 7.50482 27 8.33325 27V24ZM24.9999 10.6667C24.1715 10.6667 23.4999 11.3382 23.4999 12.1667C23.4999 12.9951 24.1715 13.6667 24.9999 13.6667V10.6667ZM14.9999 18.8333L13.9393 17.7727L7.27259 24.4393L8.33325 25.5L9.39391 26.5607L16.0606 19.894L14.9999 18.8333ZM8.33325 25.5L7.27259 26.5607L13.9393 33.2273L14.9999 32.1667L16.0606 31.106L9.39391 24.4393L8.33325 25.5ZM8.33325 25.5V27H26.6666V25.5V24H8.33325V25.5ZM26.6666 25.5V27C31.1769 27 34.8333 23.3437 34.8333 18.8333H33.3333H31.8333C31.8333 21.6868 29.5201 24 26.6666 24V25.5ZM33.3333 18.8333H34.8333C34.8333 14.323 31.1769 10.6667 26.6666 10.6667V12.1667V13.6667C29.5201 13.6667 31.8333 15.9799 31.8333 18.8333H33.3333ZM26.6666 12.1667V10.6667H24.9999V12.1667V13.6667H26.6666V12.1667Z" fill="white"/>
</svg>
