<svg width="25" height="25" viewBox="0 0 25 25" fill="none" xmlns="http://www.w3.org/2000/svg">
<path d="M21.6666 4.88721H3.66663C3.46771 4.88721 3.27695 4.96622 3.1363 5.10688C2.99564 5.24753 2.91663 5.43829 2.91663 5.63721V18.3872C2.91663 18.785 3.07466 19.1666 3.35597 19.4479C3.63727 19.7292 4.0188 19.8872 4.41663 19.8872H20.9166C21.3145 19.8872 21.696 19.7292 21.9773 19.4479C22.2586 19.1666 22.4166 18.785 22.4166 18.3872V5.63721C22.4166 5.43829 22.3376 5.24753 22.197 5.10688C22.0563 4.96622 21.8655 4.88721 21.6666 4.88721ZM12.6666 12.87L5.59506 6.38721H19.7382L12.6666 12.87ZM9.92069 12.3872L4.41663 17.4319V7.34252L9.92069 12.3872ZM11.0307 13.4044L12.1557 14.4403C12.2941 14.5674 12.475 14.6378 12.6629 14.6378C12.8507 14.6378 13.0317 14.5674 13.1701 14.4403L14.2951 13.4044L19.7326 18.3872H5.59506L11.0307 13.4044ZM15.4126 12.3872L20.9166 7.34158V17.4328L15.4126 12.3872Z" fill="#4CAF50"/>
</svg>
