<svg width="60" height="60" viewBox="0 0 60 60" fill="none" xmlns="http://www.w3.org/2000/svg">
<rect width="60" height="60" rx="30" fill="#DBEFDC" fill-opacity="0.8"/>
<path d="M40.5 25.5C40.5 24.1211 40.2284 22.7557 39.7007 21.4818C39.1731 20.2079 38.3996 19.0504 37.4246 18.0754C36.4496 17.1004 35.2921 16.3269 34.0182 15.7993C32.7443 15.2716 31.3789 15 30 15C28.6211 15 27.2557 15.2716 25.9818 15.7993C24.7079 16.3269 23.5504 17.1004 22.5754 18.0754C21.6004 19.0504 20.8269 20.2079 20.2993 21.4818C19.7716 22.7557 19.5 24.1211 19.5 25.5C19.5 27.5805 20.115 29.5155 21.1575 31.1475H21.1455C24.6855 36.69 30 45 30 45L38.8545 31.1475H38.844C39.9246 29.4621 40.4993 27.5021 40.5 25.5ZM30 30C28.8065 30 27.6619 29.5259 26.818 28.682C25.9741 27.8381 25.5 26.6935 25.5 25.5C25.5 24.3065 25.9741 23.1619 26.818 22.318C27.6619 21.4741 28.8065 21 30 21C31.1935 21 32.3381 21.4741 33.182 22.318C34.0259 23.1619 34.5 24.3065 34.5 25.5C34.5 26.6935 34.0259 27.8381 33.182 28.682C32.3381 29.5259 31.1935 30 30 30Z" fill="#337535"/>
</svg>
