<svg width="25" height="25" viewBox="0 0 25 25" fill="none" xmlns="http://www.w3.org/2000/svg">
<path d="M12.6666 6.7207C11.9249 6.7207 11.1999 6.94064 10.5832 7.35269C9.96655 7.76475 9.48591 8.35042 9.20208 9.03564C8.91825 9.72086 8.84399 10.4749 8.98868 11.2023C9.13338 11.9297 9.49053 12.5979 10.015 13.1224C10.5394 13.6468 11.2076 14.004 11.935 14.1486C12.6625 14.2933 13.4165 14.2191 14.1017 13.9353C14.7869 13.6514 15.3726 13.1708 15.7846 12.5541C16.1967 11.9374 16.4166 11.2124 16.4166 10.4707C16.4166 9.47614 16.0215 8.52231 15.3183 7.81905C14.615 7.11579 13.6612 6.7207 12.6666 6.7207ZM12.6666 12.7207C12.2216 12.7207 11.7866 12.5887 11.4166 12.3415C11.0466 12.0943 10.7582 11.7429 10.5879 11.3317C10.4176 10.9206 10.373 10.4682 10.4599 10.0317C10.5467 9.59529 10.761 9.19438 11.0756 8.87971C11.3903 8.56504 11.7912 8.35075 12.2277 8.26394C12.6641 8.17712 13.1165 8.22168 13.5277 8.39197C13.9388 8.56227 14.2902 8.85066 14.5374 9.22067C14.7847 9.59068 14.9166 10.0257 14.9166 10.4707C14.9166 11.0674 14.6796 11.6397 14.2576 12.0617C13.8357 12.4837 13.2634 12.7207 12.6666 12.7207ZM12.6666 2.2207C10.4794 2.22318 8.38237 3.09318 6.83574 4.63981C5.2891 6.18645 4.41911 8.28343 4.41663 10.4707C4.41663 13.4145 5.77694 16.5345 8.35413 19.4941C9.51215 20.8315 10.8155 22.0358 12.2401 23.0848C12.3662 23.1731 12.5164 23.2205 12.6704 23.2205C12.8243 23.2205 12.9746 23.1731 13.1007 23.0848C14.5226 22.0354 15.8235 20.8311 16.9791 19.4941C19.5526 16.5345 20.9166 13.4145 20.9166 10.4707C20.9141 8.28343 20.0442 6.18645 18.4975 4.63981C16.9509 3.09318 14.8539 2.22318 12.6666 2.2207ZM12.6666 21.5332C11.1169 20.3145 5.91663 15.8379 5.91663 10.4707C5.91663 8.68049 6.62778 6.9636 7.89366 5.69773C9.15953 4.43186 10.8764 3.7207 12.6666 3.7207C14.4568 3.7207 16.1737 4.43186 17.4396 5.69773C18.7055 6.9636 19.4166 8.68049 19.4166 10.4707C19.4166 15.836 14.2163 20.3145 12.6666 21.5332Z" fill="#4CAF50"/>
</svg>
