<svg width="60" height="60" viewBox="0 0 60 60" fill="none" xmlns="http://www.w3.org/2000/svg">
<rect width="60" height="60" rx="30" fill="#DBEFDC" fill-opacity="0.8"/>
<path fill-rule="evenodd" clip-rule="evenodd" d="M29.9999 28.2C31.4321 28.2 32.8056 27.6311 33.8183 26.6184C34.831 25.6057 35.3999 24.2322 35.3999 22.8C35.3999 21.3678 34.831 19.9943 33.8183 18.9816C32.8056 17.9689 31.4321 17.4 29.9999 17.4C28.5677 17.4 27.1942 17.9689 26.1815 18.9816C25.1688 19.9943 24.5999 21.3678 24.5999 22.8C24.5999 24.2322 25.1688 25.6057 26.1815 26.6184C27.1942 27.6311 28.5677 28.2 29.9999 28.2ZM22.3479 44.4C19.6152 44.4 17.3133 42.1029 18.359 39.5782C18.9922 38.0495 19.9203 36.6605 21.0904 35.4904C22.2604 34.3204 23.6494 33.3923 25.1781 32.7591C26.7068 32.1259 28.3452 31.8 29.9999 31.8C31.6546 31.8 33.293 32.1259 34.8217 32.7591C36.3504 33.3923 37.7394 34.3204 38.9094 35.4904C40.0795 36.6605 41.0076 38.0495 41.6408 39.5782C42.6865 42.1029 40.3846 44.4 37.6519 44.4H22.3479Z" fill="#337535"/>
</svg>
