<svg width="25" height="25" viewBox="0 0 25 25" fill="none" xmlns="http://www.w3.org/2000/svg">
<path d="M14.9419 3.60995C14.9674 3.51476 15.0114 3.42553 15.0713 3.34734C15.1313 3.26916 15.2061 3.20355 15.2914 3.15428C15.3767 3.105 15.4709 3.07302 15.5686 3.06015C15.6663 3.04729 15.7655 3.05381 15.8607 3.07932C17.2511 3.44209 18.5196 4.16893 19.5357 5.18498C20.5517 6.20104 21.2786 7.46957 21.6413 8.85995C21.6668 8.95511 21.6733 9.05438 21.6605 9.15206C21.6476 9.24975 21.6156 9.34394 21.5664 9.42926C21.5171 9.51459 21.4515 9.58936 21.3733 9.64932C21.2951 9.70927 21.2059 9.75324 21.1107 9.7787C21.0473 9.79534 20.9821 9.80384 20.9166 9.80401C20.7514 9.804 20.5907 9.74941 20.4597 9.64871C20.3286 9.548 20.2345 9.40683 20.1919 9.24713C19.8961 8.11212 19.3029 7.07655 18.4735 6.24716C17.6441 5.41776 16.6085 4.82456 15.4735 4.5287C15.3782 4.50334 15.2889 4.45945 15.2106 4.39953C15.1323 4.33962 15.0666 4.26486 15.0173 4.17953C14.9679 4.0942 14.9358 3.99997 14.9229 3.90223C14.91 3.8045 14.9164 3.70518 14.9419 3.60995ZM14.7235 7.5287C16.0163 7.8737 16.8469 8.70432 17.1919 9.99713C17.2345 10.1568 17.3286 10.298 17.4597 10.3987C17.5907 10.4994 17.7514 10.554 17.9166 10.554C17.9821 10.5538 18.0473 10.5453 18.1107 10.5287C18.2059 10.5032 18.2951 10.4593 18.3733 10.3993C18.4515 10.3394 18.5171 10.2646 18.5664 10.1793C18.6156 10.0939 18.6476 9.99975 18.6605 9.90206C18.6733 9.80438 18.6668 9.70511 18.6413 9.60995C18.1613 7.8137 16.9069 6.55932 15.1107 6.07932C15.0155 6.0539 14.9163 6.04747 14.8186 6.0604C14.721 6.07333 14.6268 6.10537 14.5416 6.15469C14.4563 6.204 14.3816 6.26963 14.3217 6.34783C14.2618 6.42602 14.2178 6.51525 14.1924 6.61042C14.167 6.70558 14.1606 6.80483 14.1735 6.90248C14.1864 7.00013 14.2185 7.09428 14.2678 7.17955C14.3171 7.26482 14.3827 7.33954 14.4609 7.39945C14.5391 7.45936 14.6283 7.50327 14.7235 7.5287ZM22.4054 16.4678C22.2382 17.7381 21.6143 18.9042 20.6503 19.7481C19.6862 20.5921 18.4479 21.0563 17.1666 21.054C9.72288 21.054 3.66663 14.9978 3.66663 7.55401C3.66434 6.27272 4.12853 5.03441 4.97251 4.07035C5.81649 3.10629 6.98254 2.48242 8.25288 2.31526C8.57412 2.27604 8.89943 2.34176 9.18025 2.50261C9.46106 2.66346 9.68233 2.91082 9.81101 3.20776L11.791 7.62807V7.63932C11.8895 7.86662 11.9302 8.11478 11.9094 8.36164C11.8887 8.6085 11.8071 8.84637 11.6719 9.05401C11.6551 9.07932 11.6373 9.10276 11.6185 9.1262L9.66663 11.4399C10.3688 12.8668 11.8613 14.3462 13.3069 15.0503L15.5888 13.1087C15.6112 13.0899 15.6347 13.0723 15.6591 13.0562C15.8666 12.9178 16.1053 12.8334 16.3536 12.8104C16.6019 12.7875 16.852 12.8269 17.0813 12.9249L17.0935 12.9306L21.5101 14.9096C21.8075 15.0379 22.0555 15.2589 22.2169 15.5398C22.3783 15.8206 22.4444 16.1462 22.4054 16.4678ZM20.9166 16.2803C20.9166 16.2803 20.9101 16.2803 20.9063 16.2803L16.5001 14.3068L14.2173 16.2484C14.1951 16.2671 14.172 16.2847 14.1479 16.3009C13.932 16.4449 13.6825 16.5304 13.4237 16.5492C13.1649 16.5679 12.9057 16.5192 12.6713 16.4078C10.9154 15.5593 9.16507 13.8221 8.3157 12.0849C8.20322 11.8523 8.15275 11.5946 8.16918 11.3367C8.1856 11.0788 8.26837 10.8296 8.40945 10.6131C8.42535 10.5877 8.44322 10.5635 8.46288 10.5409L10.4166 8.22432L8.44788 3.81807C8.44751 3.81433 8.44751 3.81056 8.44788 3.80682C7.53875 3.92541 6.70402 4.37135 6.10002 5.06112C5.49602 5.75088 5.16418 6.63717 5.16663 7.55401C5.17011 10.7355 6.43551 13.7858 8.68519 16.0355C10.9349 18.2851 13.9851 19.5505 17.1666 19.554C18.0829 19.5572 18.969 19.2265 19.6591 18.6238C20.3493 18.0211 20.7963 17.1886 20.9166 16.2803Z" fill="#4CAF50"/>
</svg>
