<svg width="60" height="60" viewBox="0 0 60 60" fill="none" xmlns="http://www.w3.org/2000/svg">
<rect width="60" height="60" rx="30" fill="#DBEFDC" fill-opacity="0.8"/>
<path d="M42 16.5H18C17.2044 16.5 16.4413 16.8161 15.8787 17.3787C15.3161 17.9413 15 18.7044 15 19.5V25.5C15 26.2956 15.3161 27.0587 15.8787 27.6213C16.4413 28.1839 17.2044 28.5 18 28.5H42C42.7957 28.5 43.5587 28.1839 44.1213 27.6213C44.6839 27.0587 45 26.2956 45 25.5V19.5C45 18.7044 44.6839 17.9413 44.1213 17.3787C43.5587 16.8161 42.7957 16.5 42 16.5ZM34.5 22.5C34.5 23.3284 33.8284 24 33 24C32.1716 24 31.5 23.3284 31.5 22.5C31.5 21.6716 32.1716 21 33 21C33.8284 21 34.5 21.6716 34.5 22.5ZM40.5 22.5C40.5 23.3284 39.8284 24 39 24C38.1716 24 37.5 23.3284 37.5 22.5C37.5 21.6716 38.1716 21 39 21C39.8284 21 40.5 21.6716 40.5 22.5ZM42 31.5H18C17.2044 31.5 16.4413 31.8161 15.8787 32.3787C15.3161 32.9413 15 33.7044 15 34.5V40.5C15 41.2956 15.3161 42.0587 15.8787 42.6213C16.4413 43.1839 17.2044 43.5 18 43.5H42C42.7957 43.5 43.5587 43.1839 44.1213 42.6213C44.6839 42.0587 45 41.2956 45 40.5V34.5C45 33.7044 44.6839 32.9413 44.1213 32.3787C43.5587 31.8161 42.7957 31.5 42 31.5ZM34.5 37.5C34.5 38.3284 33.8284 39 33 39C32.1716 39 31.5 38.3284 31.5 37.5C31.5 36.6716 32.1716 36 33 36C33.8284 36 34.5 36.6716 34.5 37.5ZM40.5 37.5C40.5 38.3284 39.8284 39 39 39C38.1716 39 37.5 38.3284 37.5 37.5C37.5 36.6716 38.1716 36 39 36C39.8284 36 40.5 36.6716 40.5 37.5Z" fill="#337535"/>
</svg>
